<svg xmlns="http://www.w3.org/2000/svg" viewBox="0 0 1000 1400" width="1000" height="1400">
  <!-- Background -->
  <rect width="1000" height="1400" fill="#F8F9FA"/>
  
  <!-- Header -->
  <rect x="50" y="40" width="900" height="120" rx="30" fill="white"/>
  <text x="80" y="110" font-size="48" font-weight="bold" fill="#4A4A4A" font-family="Arial">Kids Events</text>
  
  <!-- Category pills -->
  <rect x="50" y="200" width="900" height="80" rx="25" fill="white"/>
  <rect x="80" y="220" width="140" height="50" rx="20" fill="#E6F4FE"/>
  <text x="100" y="252" font-size="18" font-weight="600" fill="#4A90E2" font-family="Arial">Story Time</text>
  
  <rect x="240" y="220" width="140" height="50" rx="20" fill="#FFF3E0"/>
  <text x="250" y="252" font-size="18" font-weight="600" fill="#F5A623" font-family="Arial">Playdate</text>
  
  <rect x="400" y="220" width="160" height="50" rx="20" fill="#EAF7D9"/>
  <text x="410" y="252" font-size="18" font-weight="600" fill="#7ED321" font-family="Arial">Workshops</text>
  
  <rect x="590" y="220" width="140" height="50" rx="20" fill="#FCE4EC"/>
  <text x="600" y="252" font-size="18" font-weight="600" fill="#E91E63" font-family="Arial">Music</text>
  
  <!-- Event 1 -->
  <rect x="50" y="320" width="900" height="140" rx="20" fill="white"/>
  <rect x="80" y="340" width="80" height="80" rx="15" fill="#E6F4FE"/>
  <text x="95" y="375" font-size="32" font-weight="bold" fill="#4A90E2" font-family="Arial">12</text>
  <text x="95" y="405" font-size="16" font-weight="600" fill="#4A90E2" font-family="Arial">FEB</text>
  
  <text x="200" y="365" font-size="28" font-weight="bold" fill="#4A4A4A" font-family="Arial">Story Time at Library</text>
  <text x="200" y="400" font-size="16" fill="#8A8A8A" font-family="Arial">10:00 AM • Main Library</text>
  <rect x="200" y="410" width="100" height="35" rx="15" fill="#E6F4FE"/>
  <text x="215" y="432" font-size="14" font-weight="600" fill="#4A90E2" font-family="Arial">Ages 2-5</text>
  
  <!-- Event 2 -->
  <rect x="50" y="510" width="900" height="140" rx="20" fill="white"/>
  <rect x="80" y="530" width="80" height="80" rx="15" fill="#FFF3E0"/>
  <text x="95" y="565" font-size="32" font-weight="bold" fill="#F5A623" font-family="Arial">14</text>
  <text x="95" y="595" font-size="16" font-weight="600" fill="#F5A623" font-family="Arial">FEB</text>
  
  <text x="200" y="555" font-size="28" font-weight="bold" fill="#4A4A4A" font-family="Arial">Park Playdate Picnic</text>
  <text x="200" y="590" font-size="16" fill="#8A8A8A" font-family="Arial">2:00 PM • Central Park</text>
  <rect x="200" y="600" width="100" height="35" rx="15" fill="#FFF3E0"/>
  <text x="210" y="622" font-size="14" font-weight="600" fill="#F5A623" font-family="Arial">All Ages</text>
  
  <!-- Event 3 -->
  <rect x="50" y="700" width="900" height="140" rx="20" fill="white"/>
  <rect x="80" y="720" width="80" height="80" rx="15" fill="#EAF7D9"/>
  <text x="95" y="755" font-size="32" font-weight="bold" fill="#7ED321" font-family="Arial">16</text>
  <text x="95" y="785" font-size="16" font-weight="600" fill="#7ED321" font-family="Arial">FEB</text>
  
  <text x="200" y="745" font-size="28" font-weight="bold" fill="#4A4A4A" font-family="Arial">Art Workshop for Kids</text>
  <text x="200" y="780" font-size="16" fill="#8A8A8A" font-family="Arial">3:30 PM • Community Center</text>
  <rect x="200" y="790" width="120" height="35" rx="15" fill="#EAF7D9"/>
  <text x="210" y="812" font-size="14" font-weight="600" fill="#7ED321" font-family="Arial">Ages 4-8</text>
  
  <!-- Event 4 -->
  <rect x="50" y="890" width="900" height="140" rx="20" fill="white"/>
  <rect x="80" y="910" width="80" height="80" rx="15" fill="#FCE4EC"/>
  <text x="95" y="945" font-size="32" font-weight="bold" fill="#E91E63" font-family="Arial">18</text>
  <text x="95" y="975" font-size="16" font-weight="600" fill="#E91E63" font-family="Arial">FEB</text>
  
  <text x="200" y="935" font-size="28" font-weight="bold" fill="#4A4A4A" font-family="Arial">Music and Movement</text>
  <text x="200" y="970" font-size="16" fill="#8A8A8A" font-family="Arial">10:00 AM • Recreation Hall</text>
  <rect x="200" y="980" width="120" height="35" rx="15" fill="#FCE4EC"/>
  <text x="210" y="1002" font-size="14" font-weight="600" fill="#E91E63" font-family="Arial">Ages 1-4</text>
  
  <!-- Footer indicators -->
  <circle cx="200" cy="1100" r="20" fill="#E6F4FE"/>
  <circle cx="500" cy="1100" r="20" fill="#E6F4FE"/>
  <circle cx="800" cy="1100" r="20" fill="#E6F4FE"/>
</svg>
